<mxfile host="app.diagrams.net" modified="2023-10-18T21:22:26.068Z" agent="Mozilla/5.0 (Windows NT 10.0; Win64; x64) AppleWebKit/537.36 (KHTML, like Gecko) Chrome/118.0.0.0 Safari/537.36" etag="qgznixelew1I_vUp95rj" version="22.0.4" type="device">
  <diagram name="PÃ¡gina-1" id="QTjBklRx3TVHTYZwXEr7">
    <mxGraphModel dx="728" dy="380" grid="1" gridSize="10" guides="1" tooltips="1" connect="1" arrows="1" fold="1" page="1" pageScale="1" pageWidth="827" pageHeight="1169" background="#1A1A1A" math="0" shadow="0">
      <root>
        <mxCell id="0" />
        <mxCell id="1" parent="0" />
        <mxCell id="9JBbTwRGRQHnodbVDRrB-1" value="Persona" style="shape=umlActor;verticalLabelPosition=bottom;verticalAlign=top;html=1;outlineConnect=0;labelBackgroundColor=none;fillColor=#BC6C25;strokeColor=#DDA15E;fontColor=#FEFAE0;rounded=1;" parent="1" vertex="1">
          <mxGeometry x="40" y="40" width="30" height="60" as="geometry" />
        </mxCell>
        <mxCell id="R9DFFEbTo6ITw2-7La6q-40" style="edgeStyle=orthogonalEdgeStyle;rounded=0;orthogonalLoop=1;jettySize=auto;html=1;entryX=0;entryY=0.5;entryDx=0;entryDy=0;strokeColor=#DDA15E;fontColor=default;fillColor=#BC6C25;labelBackgroundColor=none;" edge="1" parent="1" target="9JBbTwRGRQHnodbVDRrB-36">
          <mxGeometry relative="1" as="geometry">
            <mxPoint x="80" y="220" as="sourcePoint" />
            <Array as="points">
              <mxPoint x="120" y="220" />
              <mxPoint x="120" y="240" />
            </Array>
          </mxGeometry>
        </mxCell>
        <mxCell id="R9DFFEbTo6ITw2-7La6q-41" style="edgeStyle=orthogonalEdgeStyle;rounded=0;orthogonalLoop=1;jettySize=auto;html=1;strokeColor=#DDA15E;fontColor=default;fillColor=#BC6C25;labelBackgroundColor=none;entryX=0;entryY=0.5;entryDx=0;entryDy=0;" edge="1" parent="1" target="9JBbTwRGRQHnodbVDRrB-34">
          <mxGeometry relative="1" as="geometry">
            <mxPoint x="170" y="190" as="targetPoint" />
            <mxPoint x="80" y="210" as="sourcePoint" />
            <Array as="points">
              <mxPoint x="120" y="210" />
              <mxPoint x="120" y="191" />
              <mxPoint x="170" y="191" />
              <mxPoint x="170" y="190" />
            </Array>
          </mxGeometry>
        </mxCell>
        <mxCell id="9JBbTwRGRQHnodbVDRrB-2" value="Empleado" style="shape=umlActor;verticalLabelPosition=bottom;verticalAlign=top;html=1;outlineConnect=0;labelBackgroundColor=none;fillColor=#BC6C25;strokeColor=#DDA15E;fontColor=#FEFAE0;rounded=1;" parent="1" vertex="1">
          <mxGeometry x="40" y="190" width="30" height="60" as="geometry" />
        </mxCell>
        <mxCell id="9JBbTwRGRQHnodbVDRrB-33" value="Compra entrada" style="rounded=1;whiteSpace=wrap;html=1;strokeColor=#DDA15E;fontColor=#FEFAE0;fillColor=#BC6C25;labelBackgroundColor=none;" parent="1" vertex="1">
          <mxGeometry x="177.5" y="40" width="90" height="40" as="geometry" />
        </mxCell>
        <mxCell id="9JBbTwRGRQHnodbVDRrB-34" value="Reservan entradas" style="rounded=1;whiteSpace=wrap;html=1;strokeColor=#DDA15E;fontColor=#FEFAE0;fillColor=#BC6C25;labelBackgroundColor=none;" parent="1" vertex="1">
          <mxGeometry x="180" y="170" width="90" height="40" as="geometry" />
        </mxCell>
        <mxCell id="R9DFFEbTo6ITw2-7La6q-38" style="edgeStyle=orthogonalEdgeStyle;rounded=0;orthogonalLoop=1;jettySize=auto;html=1;strokeColor=#DDA15E;fontColor=default;fillColor=#BC6C25;labelBackgroundColor=none;entryX=1;entryY=0.5;entryDx=0;entryDy=0;" edge="1" parent="1" source="9JBbTwRGRQHnodbVDRrB-36" target="R9DFFEbTo6ITw2-7La6q-14">
          <mxGeometry relative="1" as="geometry">
            <mxPoint x="320" y="140" as="targetPoint" />
            <Array as="points">
              <mxPoint x="293" y="230" />
              <mxPoint x="293" y="130" />
            </Array>
          </mxGeometry>
        </mxCell>
        <mxCell id="9JBbTwRGRQHnodbVDRrB-36" value="Retirar entradas reservadas" style="rounded=1;whiteSpace=wrap;html=1;strokeColor=#DDA15E;fontColor=#FEFAE0;fillColor=#BC6C25;labelBackgroundColor=none;" parent="1" vertex="1">
          <mxGeometry x="177.5" y="220" width="90" height="40" as="geometry" />
        </mxCell>
        <mxCell id="9JBbTwRGRQHnodbVDRrB-37" style="edgeStyle=orthogonalEdgeStyle;rounded=1;orthogonalLoop=1;jettySize=auto;html=1;entryX=-0.004;entryY=0.587;entryDx=0;entryDy=0;entryPerimeter=0;strokeColor=#DDA15E;fontColor=default;fillColor=#BC6C25;labelBackgroundColor=none;" parent="1" source="9JBbTwRGRQHnodbVDRrB-1" target="9JBbTwRGRQHnodbVDRrB-33" edge="1">
          <mxGeometry relative="1" as="geometry" />
        </mxCell>
        <mxCell id="R9DFFEbTo6ITw2-7La6q-13" value="administrar salas" style="rounded=1;whiteSpace=wrap;html=1;strokeColor=#DDA15E;fontColor=#FEFAE0;fillColor=#BC6C25;labelBackgroundColor=none;" vertex="1" parent="1">
          <mxGeometry x="180" y="320" width="90" height="40" as="geometry" />
        </mxCell>
        <mxCell id="R9DFFEbTo6ITw2-7La6q-14" value="Pagar" style="rounded=1;whiteSpace=wrap;html=1;strokeColor=#DDA15E;fontColor=#FEFAE0;fillColor=#BC6C25;labelBackgroundColor=none;" vertex="1" parent="1">
          <mxGeometry x="177" y="110" width="96" height="40" as="geometry" />
        </mxCell>
        <mxCell id="R9DFFEbTo6ITw2-7La6q-15" value="Servidor Banco" style="shape=umlActor;verticalLabelPosition=bottom;verticalAlign=top;html=1;outlineConnect=0;strokeColor=#DDA15E;fontColor=#FEFAE0;fillColor=#BC6C25;labelBackgroundColor=none;" vertex="1" parent="1">
          <mxGeometry x="360" y="70" width="30" height="60" as="geometry" />
        </mxCell>
        <mxCell id="R9DFFEbTo6ITw2-7La6q-28" value="" style="shape=flexArrow;endArrow=classic;html=1;rounded=0;strokeColor=#DDA15E;fontColor=default;fillColor=#BC6C25;labelBackgroundColor=none;" edge="1" parent="1">
          <mxGeometry width="50" height="50" relative="1" as="geometry">
            <mxPoint x="60" y="180" as="sourcePoint" />
            <mxPoint x="60" y="130" as="targetPoint" />
          </mxGeometry>
        </mxCell>
        <mxCell id="R9DFFEbTo6ITw2-7La6q-32" value="" style="endArrow=none;html=1;rounded=0;strokeColor=#DDA15E;fontColor=default;fillColor=#BC6C25;labelBackgroundColor=none;" edge="1" parent="1" source="R9DFFEbTo6ITw2-7La6q-14" target="R9DFFEbTo6ITw2-7La6q-15">
          <mxGeometry width="50" height="50" relative="1" as="geometry">
            <mxPoint x="280" y="200" as="sourcePoint" />
            <mxPoint x="330" y="150" as="targetPoint" />
          </mxGeometry>
        </mxCell>
        <mxCell id="R9DFFEbTo6ITw2-7La6q-34" value="" style="endArrow=classic;html=1;rounded=0;strokeColor=#DDA15E;fontColor=default;fillColor=#BC6C25;labelBackgroundColor=none;" edge="1" parent="1" source="9JBbTwRGRQHnodbVDRrB-33" target="R9DFFEbTo6ITw2-7La6q-14">
          <mxGeometry width="50" height="50" relative="1" as="geometry">
            <mxPoint x="280" y="200" as="sourcePoint" />
            <mxPoint x="330" y="150" as="targetPoint" />
          </mxGeometry>
        </mxCell>
        <mxCell id="R9DFFEbTo6ITw2-7La6q-35" value="&amp;lt;uses&amp;gt;" style="text;html=1;strokeColor=none;fillColor=none;align=center;verticalAlign=middle;whiteSpace=wrap;rounded=0;fontColor=#FEFAE0;labelBackgroundColor=none;" vertex="1" parent="1">
          <mxGeometry x="220" y="80" width="60" height="30" as="geometry" />
        </mxCell>
        <mxCell id="R9DFFEbTo6ITw2-7La6q-36" value="" style="endArrow=none;html=1;rounded=0;strokeColor=#DDA15E;fontColor=default;fillColor=#BC6C25;entryX=0;entryY=0.25;entryDx=0;entryDy=0;labelBackgroundColor=none;" edge="1" parent="1" source="9JBbTwRGRQHnodbVDRrB-1" target="R9DFFEbTo6ITw2-7La6q-14">
          <mxGeometry width="50" height="50" relative="1" as="geometry">
            <mxPoint x="120" y="70" as="sourcePoint" />
            <mxPoint x="330" y="150" as="targetPoint" />
            <Array as="points">
              <mxPoint x="120" y="120" />
            </Array>
          </mxGeometry>
        </mxCell>
        <mxCell id="R9DFFEbTo6ITw2-7La6q-39" value="&amp;lt;uses&amp;gt;" style="text;html=1;strokeColor=none;fillColor=none;align=center;verticalAlign=middle;whiteSpace=wrap;rounded=0;fontColor=#FEFAE0;labelBackgroundColor=none;" vertex="1" parent="1">
          <mxGeometry x="286" y="175" width="60" height="30" as="geometry" />
        </mxCell>
        <mxCell id="R9DFFEbTo6ITw2-7La6q-43" style="edgeStyle=orthogonalEdgeStyle;rounded=0;orthogonalLoop=1;jettySize=auto;html=1;strokeColor=#DDA15E;fontColor=default;fillColor=#BC6C25;labelBackgroundColor=none;" edge="1" parent="1" source="R9DFFEbTo6ITw2-7La6q-42" target="R9DFFEbTo6ITw2-7La6q-13">
          <mxGeometry relative="1" as="geometry" />
        </mxCell>
        <mxCell id="R9DFFEbTo6ITw2-7La6q-42" value="Administrador" style="shape=umlActor;verticalLabelPosition=bottom;verticalAlign=top;html=1;outlineConnect=0;strokeColor=#DDA15E;fontColor=#FEFAE0;fillColor=#BC6C25;labelBackgroundColor=none;" vertex="1" parent="1">
          <mxGeometry x="40" y="290" width="30" height="60" as="geometry" />
        </mxCell>
        <mxCell id="R9DFFEbTo6ITw2-7La6q-44" value="USES se usa cuando tenes mas de un extend q va a un lugar" style="text;html=1;strokeColor=none;fillColor=none;align=center;verticalAlign=middle;whiteSpace=wrap;rounded=0;fontColor=#FEFAE0;labelBackgroundColor=none;" vertex="1" parent="1">
          <mxGeometry x="280" y="260" width="190" height="30" as="geometry" />
        </mxCell>
        <mxCell id="R9DFFEbTo6ITw2-7La6q-47" value="Retirar entradas con codigo" style="rounded=1;whiteSpace=wrap;html=1;strokeColor=#DDA15E;fontColor=#FEFAE0;fillColor=#BC6C25;" vertex="1" parent="1">
          <mxGeometry x="177" y="270" width="93" height="40" as="geometry" />
        </mxCell>
      </root>
    </mxGraphModel>
  </diagram>
</mxfile>
